<?xml version="1.0" encoding="UTF-8"?>
<svg xmlns="http://www.w3.org/2000/svg" viewBox="0 0 299.2 100">
  <defs>
    <style>
      .cls-1 {
        fill: #fff;
      }
    </style>
  </defs>
  <g id="Layer_1" data-name="Layer 1"/>
  <g id="Layer_2" data-name="Layer 2">
    <g id="Layer_1-2" data-name="Layer 1">
      <g>
        <path class="cls-1" d="M275.3,0H23.8C22.9,0,22,0,21.1,0c-.8,0-1.5,0-2.3,0-1.7,0-3.4,.2-5,.4-1.7,.3-3.3,.8-4.8,1.6-1.5,.8-2.9,1.8-4,2.9-1.2,1.2-2.2,2.6-2.9,4.1-.8,1.5-1.3,3.1-1.6,4.8-.3,1.7-.4,3.3-.4,5,0,.8,0,1.5,0,2.3v57.8c0,.8,0,1.5,0,2.3,0,1.7,.2,3.4,.4,5,.3,1.7,.8,3.3,1.6,4.8,.8,1.5,1.8,2.9,2.9,4,1.2,1.2,2.5,2.2,4,2.9,1.5,.8,3.1,1.3,4.8,1.6,1.7,.3,3.3,.4,5,.4,.8,0,1.5,0,2.3,0,.9,0,1.8,0,2.7,0h251.5c.9,0,1.8,0,2.7,0,.8,0,1.5,0,2.3,0,1.7,0,3.3-.2,5-.4,1.7-.3,3.3-.8,4.8-1.6,1.5-.8,2.9-1.8,4-2.9,1.2-1.2,2.2-2.5,3-4,.8-1.5,1.3-3.1,1.5-4.8,.3-1.7,.4-3.3,.5-5,0-.8,0-1.5,0-2.3,0-.9,0-1.8,0-2.7V23.8c0-.9,0-1.8,0-2.7,0-.8,0-1.5,0-2.3,0-1.7-.2-3.4-.5-5-.3-1.7-.8-3.3-1.5-4.8-1.5-3-4-5.5-7-7-1.5-.8-3.1-1.3-4.8-1.6-1.7-.3-3.3-.4-5-.4-.8,0-1.5,0-2.3,0-.9,0-1.8,0-2.7,0h0Z"/>
        <path d="M21.1,97.8c-.8,0-1.5,0-2.3,0-1.6,0-3.1-.2-4.7-.4-1.4-.2-2.8-.7-4.1-1.4-1.3-.7-2.5-1.5-3.5-2.5-1-1-1.9-2.2-2.6-3.5-.7-1.3-1.1-2.7-1.4-4.1-.3-1.5-.4-3.1-.4-4.7,0-.5,0-2.3,0-2.3V21.1s0-1.7,0-2.2c0-1.6,.2-3.1,.4-4.7,.2-1.4,.7-2.8,1.4-4.2,.7-1.3,1.5-2.5,2.5-3.5,1-1,2.2-1.9,3.5-2.6,1.3-.7,2.7-1.1,4.1-1.4,1.6-.3,3.1-.4,4.7-.4H280.3c1.6,0,3.1,.2,4.6,.4,1.5,.2,2.9,.7,4.2,1.4,2.6,1.3,4.7,3.5,6,6,.7,1.3,1.1,2.7,1.3,4.1,.3,1.6,.4,3.1,.4,4.7,0,.7,0,1.5,0,2.2,0,.9,0,1.8,0,2.7v52.3c0,.9,0,1.8,0,2.7,0,.8,0,1.6,0,2.3,0,1.6-.2,3.1-.4,4.6-.2,1.5-.7,2.9-1.3,4.2-.7,1.3-1.5,2.5-2.5,3.5-1,1-2.2,1.9-3.5,2.6-1.3,.7-2.7,1.1-4.2,1.4-1.5,.3-3.1,.4-4.7,.4-.7,0-1.5,0-2.2,0H21.1Z"/>
        <g id="_Group_" data-name=" Group ">
          <g id="_Group_2" data-name=" Group 2">
            <g id="_Group_3" data-name=" Group 3">
              <path id="_Path_" data-name=" Path " class="cls-1" d="M61.9,50.8c0-4.2,2.3-8.2,5.9-10.4-2.3-3.3-6-5.3-10-5.4-4.2-.4-8.3,2.5-10.4,2.5s-5.5-2.5-9-2.4c-4.7,.2-8.9,2.7-11.2,6.8-4.8,8.4-1.2,20.7,3.4,27.4,2.3,3.3,5,7,8.6,6.9,3.5-.1,4.8-2.2,8.9-2.2s5.4,2.2,9,2.1c3.7,0,6.1-3.3,8.3-6.7,1.7-2.4,2.9-5,3.8-7.7-4.4-1.9-7.3-6.2-7.3-11Z"/>
              <path id="_Path_2" data-name=" Path 2" class="cls-1" d="M55.1,30.5c2-2.4,3-5.6,2.8-8.7-3.1,.3-6,1.8-8,4.1-2,2.3-3.1,5.3-2.9,8.4,3.1,0,6.1-1.4,8.1-3.8Z"/>
            </g>
          </g>
          <g>
            <path class="cls-1" d="M105.8,67.8h-11.8l-2.8,8.4h-5l11.2-31h5.2l11.2,31h-5.1l-2.8-8.4Zm-10.6-3.9h9.4l-4.6-13.6h-.1l-4.6,13.6Z"/>
            <path class="cls-1" d="M137.9,64.9c0,7-3.8,11.6-9.4,11.6-2.9,.2-5.7-1.4-7.1-4h-.1v11.2h-4.6v-30.1h4.5v3.8h0c1.5-2.6,4.3-4.1,7.2-4,5.7,0,9.5,4.5,9.5,11.6Zm-4.8,0c0-4.6-2.4-7.6-6-7.6s-5.9,3.1-5.9,7.6,2.4,7.6,5.9,7.6,6-3,6-7.6Z"/>
            <path class="cls-1" d="M162.8,64.9c0,7-3.8,11.6-9.4,11.6-2.9,.2-5.7-1.4-7.1-4h-.1v11.2h-4.6v-30.1h4.5v3.8h0c1.5-2.6,4.3-4.1,7.2-4,5.7,0,9.5,4.5,9.5,11.6Zm-4.8,0c0-4.6-2.4-7.6-6-7.6s-5.9,3.1-5.9,7.6,2.4,7.6,5.9,7.6,6-3,6-7.6h0Z"/>
            <path class="cls-1" d="M179.3,67.6c.3,3.1,3.3,5.1,7.4,5.1s6.7-2,6.7-4.8-1.7-3.9-5.7-4.8l-4-1c-5.7-1.4-8.3-4-8.3-8.4s4.7-9,11.3-9,11.1,3.7,11.2,9h-4.7c-.3-3.1-2.8-5-6.6-5s-6.3,1.9-6.3,4.6,1.6,3.5,5.6,4.5l3.4,.8c6.4,1.5,9,4.1,9,8.6s-4.6,9.4-12,9.4-11.5-3.6-11.8-9.2h4.8Z"/>
            <path class="cls-1" d="M208.4,48.2v5.4h4.3v3.7h-4.3v12.5c0,1.9,.9,2.8,2.8,2.8,.5,0,1,0,1.5-.1v3.7c-.9,.2-1.7,.2-2.6,.2-4.6,0-6.4-1.7-6.4-6.1v-13h-3.3v-3.7h3.3v-5.4h4.7Z"/>
            <path class="cls-1" d="M215.2,64.9c0-7.1,4.2-11.6,10.7-11.6s10.7,4.5,10.7,11.6-4.2,11.6-10.7,11.6-10.7-4.5-10.7-11.6Zm16.7,0c0-4.9-2.2-7.8-6-7.8s-6,2.9-6,7.8,2.2,7.8,6,7.8,6-2.9,6-7.8h0Z"/>
            <path class="cls-1" d="M240.5,53.6h4.4v3.9h.1c.6-2.5,2.9-4.2,5.4-4.1,.5,0,1.1,0,1.6,.2v4.3c-.7-.2-1.4-.3-2.1-.3-2.6-.1-4.8,1.9-4.9,4.5,0,.2,0,.5,0,.7v13.4h-4.6v-22.6Z"/>
            <path class="cls-1" d="M273.5,69.6c-.6,4.1-4.6,6.9-9.7,6.9s-10.7-4.4-10.7-11.5,4.1-11.7,10.5-11.7,10.2,4.3,10.2,11.2v1.6h-16v.3c-.3,3.2,2.1,6.1,5.4,6.4,.2,0,.5,0,.7,0,2.3,.2,4.4-1.1,5.2-3.2h4.4Zm-15.7-6.8h11.3c.2-3-2.1-5.6-5.1-5.7-.1,0-.3,0-.4,0-3.2,0-5.7,2.5-5.8,5.7,0,0,0,0,0,0Z"/>
          </g>
        </g>
        <g id="_Group_4" data-name=" Group 4">
          <g>
            <path class="cls-1" d="M94.6,21.8c3.6-.3,6.8,2.5,7.1,6.1,0,.4,0,.9,0,1.3,0,4.8-2.6,7.5-7,7.5h-5.4v-14.9h5.4Zm-3.1,12.8h2.8c2.6,.2,4.8-1.8,5-4.4,0-.3,0-.6,0-1,.4-2.6-1.4-4.9-4-5.3-.3,0-.6,0-.9,0h-2.8v10.7Z"/>
            <path class="cls-1" d="M104.2,31.1c-.3-2.9,1.9-5.5,4.8-5.8,2.9-.3,5.5,1.9,5.8,4.8,0,.3,0,.7,0,1,.3,2.9-1.9,5.5-4.8,5.8-2.9,.3-5.5-1.9-5.8-4.8,0-.3,0-.7,0-1Zm8.3,0c0-2.4-1.1-3.9-3-3.9s-3,1.4-3,3.9,1.1,3.9,3,3.9c1.9,0,3-1.4,3-3.9h0Z"/>
            <path class="cls-1" d="M128.9,36.7h-2.3l-2.3-8.3h-.2l-2.3,8.3h-2.3l-3.1-11.3h2.3l2,8.6h.2l2.3-8.6h2.1l2.3,8.6h.2l2-8.6h2.2l-3.1,11.3Z"/>
            <path class="cls-1" d="M134.6,25.5h2.1v1.8h.2c.6-1.3,1.9-2.1,3.4-2,2-.2,3.8,1.4,3.9,3.4,0,.3,0,.5,0,.8v7.3h-2.2v-6.7c0-1.8-.8-2.7-2.4-2.7-1.4,0-2.6,1-2.7,2.5,0,.1,0,.3,0,.4v6.6h-2.2v-11.3Z"/>
            <path class="cls-1" d="M147.7,21.1h2.2v15.7h-2.2v-15.7Z"/>
            <path class="cls-1" d="M153,31.1c-.3-2.9,1.9-5.5,4.8-5.8,2.9-.3,5.5,1.9,5.8,4.8,0,.3,0,.7,0,1,.3,2.9-1.9,5.5-4.8,5.8s-5.5-1.9-5.8-4.8c0-.3,0-.7,0-1Zm8.3,0c0-2.4-1.1-3.9-3-3.9s-3,1.4-3,3.9,1.1,3.9,3,3.9c1.9,0,3-1.4,3-3.9Z"/>
            <path class="cls-1" d="M166,33.6c0-2,1.5-3.2,4.2-3.4l3-.2v-1c0-1.2-.8-1.9-2.3-1.9s-2.1,.5-2.3,1.3h-2.2c.2-1.9,2-3.2,4.6-3.2s4.4,1.4,4.4,3.8v7.7h-2.1v-1.6h-.2c-.7,1.2-2,1.8-3.4,1.8-1.9,.2-3.5-1.2-3.7-3,0-.1,0-.2,0-.3Zm7.2-1v-.9l-2.7,.2c-1.6,.1-2.3,.6-2.3,1.6s.9,1.6,2.1,1.6c1.5,.1,2.8-.9,2.9-2.4,0,0,0,0,0,0Z"/>
            <path class="cls-1" d="M178.4,31.1c0-3.6,1.8-5.8,4.7-5.8,1.4,0,2.8,.7,3.5,2h.2v-6.2h2.2v15.7h-2.1v-1.8h-.2c-.7,1.3-2.1,2-3.5,2-2.9,0-4.7-2.3-4.7-5.8Zm2.3,0c0,2.4,1.1,3.8,3,3.8s3-1.5,3-3.8-1.2-3.8-3-3.8-3,1.4-3,3.8h0Z"/>
            <path class="cls-1" d="M198.1,31.1c-.3-2.9,1.9-5.5,4.8-5.8s5.5,1.9,5.8,4.8c0,.3,0,.7,0,1,.3,2.9-1.9,5.5-4.8,5.8-2.9,.3-5.5-1.9-5.8-4.8,0-.3,0-.7,0-1Zm8.3,0c0-2.4-1.1-3.9-3-3.9s-3,1.4-3,3.9,1.1,3.9,3,3.9c1.9,0,3-1.4,3-3.9Z"/>
            <path class="cls-1" d="M211.7,25.5h2.1v1.8h.2c.6-1.3,1.9-2.1,3.4-2,2-.2,3.8,1.4,3.9,3.4,0,.3,0,.5,0,.8v7.3h-2.2v-6.7c0-1.8-.8-2.7-2.4-2.7-1.4,0-2.6,1-2.7,2.5,0,.1,0,.3,0,.4v6.6h-2.2v-11.3Z"/>
            <path class="cls-1" d="M233.8,22.7v2.9h2.4v1.9h-2.4v5.8c0,1.2,.5,1.7,1.6,1.7,.3,0,.6,0,.8,0v1.9c-.4,0-.8,.1-1.2,.1-2.5,0-3.5-.9-3.5-3v-6.4h-1.8v-1.9h1.8v-2.9h2.2Z"/>
            <path class="cls-1" d="M239.3,21.1h2.2v6.2h.2c.6-1.3,2-2.1,3.4-2,2-.1,3.8,1.5,3.9,3.5,0,.2,0,.5,0,.7v7.3h-2.2v-6.7c0-1.8-.8-2.7-2.4-2.7-1.4-.1-2.7,1-2.8,2.4,0,.1,0,.3,0,.4v6.6h-2.2v-15.7Z"/>
            <path class="cls-1" d="M261.9,33.7c-.6,2.1-2.7,3.5-4.9,3.3-2.8,0-5.2-2.2-5.2-5,0-.3,0-.6,0-.8-.4-2.8,1.6-5.5,4.5-5.8,.2,0,.5,0,.7,0,3.1,0,5,2.1,5,5.7v.8h-7.9c-.1,1.8,1.1,3.2,2.7,3.3,0,0,.2,0,.3,0,1.1,.1,2.1-.4,2.7-1.4h2.1Zm-7.8-3.6h5.7c.1-1.5-1-2.8-2.5-2.9,0,0-.2,0-.3,0-1.6,0-2.9,1.3-2.9,2.8,0,0,0,0,0,0h0Z"/>
          </g>
        </g>
      </g>
    </g>
  </g>
</svg>