<?xml version="1.0" encoding="UTF-8"?>
<svg xmlns="http://www.w3.org/2000/svg" viewBox="0 0 99.5 100">
  <defs>
    <style>
      .cls-1 {
        fill: #52b77b;
      }
    </style>
  </defs>
  <g id="Layer_1" data-name="Layer 1"/>
  <g id="Layer_2" data-name="Layer 2">
    <g id="Layer_1-2" data-name="Layer 1">
      <g>
        <path class="cls-1" d="M38,46.5c-2-2-5-2-7,0-2,2-2,5,0,7l15,15c1,1,2,1.5,3.5,1.5s2.5-.5,3.5-1.5L88,28.5c1.5-2,1.5-5.5-1-7-2-1.5-5-1.5-6.5,.5l-31,35.5-11.5-11Z"/>
        <path class="cls-1" d="M94.5,45c-3,0-5,2-5,5,0,22-18,40-40,40S9.5,72,9.5,50s4-20.5,11.5-28c7.5-8,18-12,28.5-12s6.5,.5,9.5,1c2.5,1,5.5-.5,6.5-3.5,1-3-1-5-3.5-6h-.5c-4-1-8-1.5-12-1.5C22,0-.5,22.5,0,50.5,0,63.5,5.5,76.5,14.5,85.5c9.5,9.5,22,14.5,35,14.5,27.5,0,50-22.5,50-50s-2-5-5-5Z"/>
      </g>
    </g>
  </g>
</svg>